<svg version="1.1" id="Layer_1" xmlns="http://www.w3.org/2000/svg" xmlns:xlink="http://www.w3.org/1999/xlink" x="0px" y="0px"
	 width="100%" viewBox="0 0 896 880" enable-background="new 0 0 896 880" xml:space="preserve">
<path fill="#000000" opacity="1.000000" stroke="none" 
	d="
M374.468658,881.000000 
	C366.719116,878.628052 359.027740,878.402832 351.607208,876.537598 
	C331.626770,871.515320 311.885742,865.826477 292.710480,858.258728 
	C263.219086,846.619629 235.074478,832.313904 208.771927,814.617859 
	C182.866241,797.188904 158.916199,777.365784 137.071289,754.948547 
	C99.008186,715.888000 68.872513,671.519104 46.954197,621.634033 
	C38.668808,602.776794 32.221497,583.213013 26.538401,563.388916 
	C17.479736,531.789917 12.727483,499.583862 10.658936,466.797821 
	C8.969954,440.027832 11.391513,413.654449 14.635911,387.183838 
	C17.945263,360.183289 24.546244,333.981232 33.009983,308.279327 
	C48.151123,262.300079 70.254768,219.877335 99.480659,181.158890 
	C131.639954,138.554306 170.207565,102.906319 214.943405,73.949684 
	C248.348618,52.327152 284.143555,35.793961 322.338776,24.370777 
	C337.565125,19.816980 352.965668,15.982690 368.528381,13.186882 
	C388.105377,9.669921 407.847931,7.269244 427.853363,6.503807 
	C447.044983,5.769506 466.163239,6.201537 485.282471,7.019983 
	C494.349213,7.408109 503.413849,8.857329 512.456543,10.144526 
	C521.637512,11.451402 530.761536,13.000758 539.839233,14.788305 
	C548.746216,16.542233 557.641968,18.505665 566.369263,20.986904 
	C582.980530,25.709602 599.335999,31.196741 615.375793,37.690842 
	C653.764526,53.233414 689.241516,73.892586 721.577820,99.568199 
	C763.837585,133.123260 798.969055,173.159073 826.586731,219.679337 
	C842.690430,246.804993 855.988098,275.261108 866.543518,304.915436 
	C872.493286,321.630646 876.673218,338.947327 880.469116,356.331787 
	C883.697388,371.116577 886.481384,386.046692 887.665710,401.024902 
	C889.628357,425.845245 892.170837,450.698975 888.817261,475.757019 
	C887.507324,485.545197 887.189453,495.614777 886.117737,505.504883 
	C884.488342,520.540405 881.534119,535.399353 877.992432,550.106323 
	C870.619751,580.721375 859.972656,610.205994 846.182495,638.492920 
	C834.053467,663.372437 819.622314,686.866455 803.057129,709.110046 
	C786.879089,730.833984 769.018127,750.988037 749.260559,769.448608 
	C714.791077,801.655273 676.054382,827.525330 633.259399,847.443237 
	C611.800110,857.430969 589.648010,865.350891 566.955261,871.905457 
	C553.400452,875.820618 539.607666,878.585327 525.328369,880.805115 
	C474.979095,881.000000 424.958221,881.000000 374.468658,881.000000 
M41.217171,428.578308 
	C40.965725,434.233612 40.261044,439.911743 40.545036,445.540039 
	C41.524517,464.951721 41.857029,484.363037 44.866703,503.699677 
	C47.523525,520.769409 50.998405,537.599182 55.668468,554.146240 
	C65.316666,588.331970 78.739677,620.940552 96.660851,651.761108 
	C126.683212,703.393127 165.909698,746.585632 214.313889,781.341553 
	C245.948364,804.056152 280.509644,821.458740 317.246429,834.388916 
	C343.577454,843.656677 370.767822,849.615356 398.361420,853.469421 
	C415.824707,855.908630 433.494324,856.851440 451.128815,856.770325 
	C466.247833,856.700745 481.344055,855.887146 496.435577,854.139648 
	C510.637146,852.495239 524.726746,850.313416 538.674194,847.445435 
	C556.075012,843.867310 573.006348,838.303711 589.640747,832.141724 
	C623.304138,819.671570 655.129944,803.363953 684.434509,782.625977 
	C714.178650,761.577026 740.827759,737.040771 764.122437,708.855713 
	C789.524780,678.120605 809.807739,644.346375 825.834412,607.940063 
	C837.109375,582.327698 845.268250,555.727600 851.113586,528.357239 
	C856.447021,503.384003 859.159302,478.129059 859.776123,452.667725 
	C860.414795,426.303680 857.250488,400.230713 852.797119,374.266876 
	C848.661804,350.157959 842.284851,326.651611 833.705872,303.824310 
	C814.098145,251.651611 785.109436,205.129761 747.307983,164.197464 
	C724.595337,139.603653 698.777100,118.572296 670.708496,100.401802 
	C638.277222,79.407089 603.508362,63.250957 566.347046,52.602547 
	C543.851013,46.156418 521.050659,41.162048 497.628510,38.799454 
	C482.890747,37.312859 468.129669,35.485298 453.393311,35.562073 
	C423.974365,35.715347 394.740753,38.494957 365.873016,44.767097 
	C341.949921,49.964890 318.604614,56.833439 295.995667,66.221756 
	C254.764603,83.342888 217.178070,106.398018 183.408890,135.594955 
	C164.461441,151.976990 147.473755,170.214325 131.770248,189.765472 
	C108.251701,219.046448 89.497528,251.128448 74.482292,285.399597 
	C61.395065,315.270203 52.400589,346.439728 46.860004,378.612793 
	C44.063049,394.854218 41.764042,411.126465 41.217171,428.578308 
z"/>
<path fill="#000000" opacity="1.000000" stroke="none" 
	d="
M580.171631,445.943054 
	C576.580383,463.068817 569.970337,478.639984 562.576843,493.916534 
	C559.501648,500.270630 557.760071,501.200226 550.708801,499.838898 
	C541.737732,498.106934 532.686829,497.074585 523.603638,496.248138 
	C519.023865,495.831451 518.055481,494.409485 519.909119,490.051971 
	C525.883789,476.006500 530.560730,461.543823 534.215698,446.734344 
	C535.748413,440.523987 536.115662,434.215179 535.753479,427.883728 
	C535.440796,422.418854 532.952454,420.943695 527.841125,422.556030 
	C512.644470,427.349640 499.875793,436.550873 487.228455,445.671082 
	C468.133240,459.440979 451.247528,475.816040 434.883240,492.702026 
	C433.738525,493.883240 432.359894,494.920166 432.062073,496.835144 
	C433.380127,499.180603 435.752228,498.522278 437.789581,498.628784 
	C464.385406,500.019165 491.003601,501.066467 517.573486,502.839294 
	C535.980469,504.067474 554.401733,505.705933 572.666626,508.241058 
	C587.062256,510.239166 601.436951,512.568359 615.754333,515.358643 
	C650.329651,522.096924 683.580383,532.364502 714.883484,548.603455 
	C730.610840,556.762268 745.405457,566.348328 758.247009,578.679138 
	C767.055298,587.137146 773.929260,596.975464 776.337952,609.091248 
	C778.764709,621.297729 777.545776,633.277832 770.943970,644.229675 
	C761.956604,659.138977 749.685303,670.598083 734.295898,678.715393 
	C732.911926,679.445435 731.296021,681.046265 729.919861,679.080505 
	C728.734070,677.386780 730.181946,675.969727 731.299683,674.727417 
	C736.309204,669.159241 741.349609,663.618774 746.350342,658.042603 
	C766.345886,635.745789 760.003235,612.758850 737.630798,596.094055 
	C719.449890,582.551514 699.028320,573.308655 678.013672,565.193420 
	C660.161377,558.299500 641.782043,553.091797 623.216797,548.690613 
	C609.065796,545.335876 594.871765,542.073486 580.409729,539.991089 
	C567.117615,538.077209 553.931030,535.451599 540.553406,533.995056 
	C537.207947,533.630798 535.251831,534.596130 533.414368,537.108032 
	C517.124329,559.376709 498.045227,579.149719 478.243256,598.240417 
	C452.457581,623.100037 424.569611,645.162170 391.901917,660.412415 
	C384.023651,664.090332 375.564331,667.556335 366.547577,663.232910 
	C358.369110,659.311401 352.646362,653.051758 349.424988,644.622559 
	C347.951569,640.767212 349.328552,637.567627 352.391846,634.815063 
	C355.221283,632.272583 357.546631,630.175415 361.984497,632.159729 
	C368.025024,634.860657 374.013428,633.020874 379.568085,629.858521 
	C396.694336,620.108459 412.588867,608.663879 427.459869,595.716187 
	C448.605835,577.305054 468.332550,557.493958 486.933044,536.539551 
	C488.222656,535.086731 490.025787,533.895996 489.973755,531.362366 
	C487.829895,529.175781 484.853058,529.404175 482.148041,529.389099 
	C456.317810,529.245483 430.486816,529.244995 404.656342,529.133545 
	C401.673248,529.120728 399.671814,530.262146 398.074921,532.762573 
	C379.959869,561.127502 363.414124,590.343811 350.296692,621.389465 
	C345.845612,631.924011 341.335236,642.493225 337.878723,653.372803 
	C333.846741,666.063660 322.183319,668.043579 311.760803,662.229187 
	C307.668365,659.946167 304.182709,656.868530 300.871613,653.528503 
	C294.731049,647.334290 294.159332,639.648499 296.148651,632.118103 
	C299.959656,617.691895 304.335815,603.387268 309.149567,589.261169 
	C314.285461,574.189636 320.164490,559.370056 325.777893,544.462585 
	C343.855927,496.453156 364.141418,449.366943 385.707642,402.842255 
	C399.963684,372.087769 414.718445,341.559174 429.648621,311.125031 
	C435.692505,298.804962 445.449158,296.802429 458.257477,299.809998 
	C465.505920,301.512024 471.958588,304.623810 477.727264,309.347229 
	C484.282959,314.715057 485.923737,320.352081 481.895020,327.747650 
	C467.248077,354.635284 453.868683,382.155396 440.633850,409.747772 
	C435.170746,421.137451 430.024780,432.679626 424.783386,444.174683 
	C424.114563,445.641541 423.390564,447.189240 424.042297,449.207245 
	C426.697418,448.716370 428.352051,446.839874 430.117371,445.190460 
	C451.630341,425.089996 475.027924,407.615082 501.322235,394.203552 
	C513.107178,388.192596 525.234497,383.078400 538.885376,384.825867 
	C556.733215,387.110596 575.062622,396.961548 580.919067,416.515137 
	C583.818481,426.195679 581.968994,435.899261 580.171631,445.943054 
z"/>
<path fill="#000000" opacity="1.000000" stroke="none" 
	d="
M262.947205,552.888672 
	C258.396240,569.619568 253.623383,585.884338 249.687241,602.349121 
	C246.921249,613.919128 244.991394,625.701355 242.893250,637.434509 
	C238.634430,661.250488 238.880066,685.157227 239.386978,709.098816 
	C239.570404,717.762329 240.013565,726.762695 246.457672,733.883057 
	C247.915100,735.493469 247.766815,737.764648 247.008896,739.619873 
	C245.003311,744.528931 241.319214,747.970642 236.184769,749.145996 
	C230.888641,750.358398 226.236588,748.496094 222.929092,744.136292 
	C217.617844,737.135193 214.563522,729.101074 212.803711,720.551941 
	C207.716980,695.840637 208.432922,671.029480 210.505692,646.027100 
	C211.660080,632.102356 213.484375,618.280212 215.176453,604.451050 
	C216.722061,591.818909 220.164230,579.429260 222.020554,566.822205 
	C224.469376,550.191467 228.595062,533.923035 231.865891,517.474243 
	C233.825668,507.618713 236.654617,497.934875 239.129578,488.183197 
	C241.852051,477.456177 244.487335,466.704590 247.394180,456.027313 
	C251.402954,441.302490 255.436127,426.592834 260.032745,412.021606 
	C266.525726,391.438934 273.014252,370.857788 279.902100,350.404633 
	C282.050781,344.024170 284.824860,337.846680 286.454437,330.805573 
	C280.758575,329.572815 276.328339,332.487457 271.848999,333.928253 
	C234.993256,345.783203 198.474228,358.612030 162.376480,372.629517 
	C147.510345,378.402374 138.114700,374.071869 130.107849,360.738678 
	C127.298370,356.060211 124.993492,351.077545 124.314781,345.488556 
	C123.179741,336.141754 126.677124,330.122131 135.891983,328.070251 
	C147.933182,325.389069 159.114502,320.176086 170.956070,317.008942 
	C184.268524,313.448425 197.643234,310.121063 210.985382,306.671051 
	C222.930878,303.582153 234.849609,300.387421 246.816452,297.384094 
	C256.089264,295.056885 265.423309,292.974670 274.720581,290.743744 
	C283.406403,288.659515 292.097351,286.592102 300.749817,284.375732 
	C304.310760,283.463654 305.345093,280.093323 306.422760,277.214203 
	C321.839844,236.026642 340.884460,196.601822 363.563416,158.925598 
	C365.792603,155.222244 367.641449,151.270920 370.071350,147.710800 
	C379.338531,134.133102 386.348267,131.052841 401.665405,136.242676 
	C408.479980,138.551620 414.811157,141.981995 420.234192,146.779602 
	C426.580383,152.393860 427.569611,157.795044 422.971100,164.869415 
	C403.226746,195.244125 386.997528,227.486572 371.746490,260.264740 
	C370.757202,262.390961 369.174225,264.606232 371.013977,266.723602 
	C372.701508,268.665710 374.988678,267.299713 377.087799,266.873016 
	C387.672058,264.721527 398.280060,262.687225 408.877289,260.599243 
	C417.781067,258.844940 426.658203,256.943207 435.589752,255.345139 
	C445.009338,253.659729 454.482117,252.272903 463.926575,250.724625 
	C469.792389,249.763016 475.723358,249.052536 481.487122,247.658752 
	C486.664886,246.406662 492.002777,245.950974 497.170044,245.268234 
	C518.404541,242.462570 539.589722,239.271454 560.857605,236.665817 
	C600.821594,231.769562 640.908386,230.363052 681.021790,232.118973 
	C699.974792,232.948654 719.455994,232.791077 737.420227,240.885590 
	C739.969543,242.034302 744.394653,242.402390 743.730164,246.051620 
	C743.005249,250.032257 738.711914,248.177322 736.037231,248.211914 
	C721.539795,248.399475 707.029236,247.975677 692.541321,248.391968 
	C677.920593,248.812057 663.359985,250.410736 648.781616,251.673248 
	C634.383179,252.920181 620.069214,254.819412 605.710510,256.335358 
	C594.513489,257.517517 583.442505,259.846375 572.274841,261.366791 
	C562.082275,262.754486 551.942444,264.480713 541.765564,265.912659 
	C529.892944,267.583160 518.241455,270.341187 506.426666,272.262787 
	C497.441254,273.724182 488.506287,275.524780 479.589203,277.369446 
	C470.036377,279.345581 460.492493,281.392029 451.012878,283.689148 
	C433.749908,287.872375 416.512207,292.166077 399.311310,296.597565 
	C384.389191,300.441986 369.524902,304.512360 354.652710,308.548035 
	C351.141571,309.500824 348.641449,311.478485 347.112274,315.112610 
	C336.859802,339.477753 327.705261,364.269684 318.434509,389.008636 
	C308.591583,415.274475 299.040680,441.658661 289.911469,468.180206 
	C282.894775,488.564789 276.719055,509.239105 270.191223,529.791565 
	C267.789398,537.353455 265.450409,544.935303 262.947205,552.888672 
z"/>
</svg>