<svg xmlns="http://www.w3.org/2000/svg" viewBox="0 0 896 880">
<style>
  path { fill: #100F0F; }
  @media (prefers-color-scheme: dark) {
    path { fill: #FFFCF0; }
  }
</style>
<path d="M374,881 C367,879 359,878 352,876 C332,872 312,866 293,858 C263,847 235,832 209,815 C183,797 159,777 137,755 C99,716 69,672 47,622 C39,603 32,583 26,563 C18,532 13,500 11,467 C9,440 11,414 15,387 C18,360 25,334 33,308 C48,262 70,220 100,181 C132,139 170,103 215,74 C248,52 284,36 322,24 C338,20 353,16 368,13 C388,10 408,7 428,6 C447,6 466,6 485,7 C494,7 503,9 512,10 C522,11 531,13 540,15 C549,16 558,18 566,21 C583,26 599,31 615,38 C654,53 689,74 722,100 C764,133 799,173 827,220 C843,247 856,275 866,305 C872,322 877,339 880,356 C884,371 886,386 888,401 C890,426 892,451 889,476 C888,486 887,496 886,506 C884,520 882,535 878,550 C871,581 860,610 846,638 C834,663 820,687 803,709 C787,731 769,751 749,770 C715,802 676,828 633,847 C612,857 590,865 567,872 C553,876 540,879 525,881 C475,881 425,881 374,881 M41,429 C41,434 40,440 40,446 C42,465 42,484 45,504 C48,521 51,538 56,554 C65,588 79,621 97,652 C127,703 166,747 214,781 C246,804 280,822 317,834 C344,844 371,850 398,854 C416,856 434,857 451,857 C466,857 481,856 496,854 C511,852 525,850 539,848 C556,844 573,838 590,832 C623,820 655,803 684,783 C714,762 741,737 764,709 C790,678 810,644 826,608 C837,582 845,556 851,528 C856,503 859,478 860,453 C860,426 857,400 853,374 C849,350 842,327 834,304 C814,252 785,205 747,164 C725,140 699,119 671,100 C638,79 604,63 566,53 C544,46 521,41 498,39 C483,37 468,36 453,36 C424,36 395,38 366,45 C342,50 319,57 296,66 C255,83 217,106 183,136 C164,152 148,170 132,190 C108,219 90,251 74,285 C61,315 52,346 47,379 C44,395 42,411 41,429 z"/>
<path d="M580,446 C577,463 570,479 563,494 C560,500 558,501 551,500 C542,498 533,497 524,496 C519,496 518,494 520,490 C526,476 531,462 534,447 C536,440 536,434 536,428 C535,422 533,421 528,423 C513,427 500,437 487,446 C468,459 451,476 435,493 C434,494 432,495 432,497 C433,499 436,498 438,499 C464,500 491,501 518,503 C536,504 554,506 573,508 C587,510 601,513 616,515 C650,522 684,532 715,549 C731,557 745,566 758,579 C767,587 774,597 776,609 C779,621 778,633 771,644 C762,659 750,671 734,679 C733,680 731,681 730,679 C729,677 730,676 731,675 C736,669 741,664 746,658 C766,636 760,613 738,596 C720,582 699,573 678,565 C660,558 642,553 623,549 C609,545 595,542 580,540 C567,538 554,536 540,534 C537,534 535,535 533,537 C517,559 498,579 478,598 C452,623 425,645 392,660 C384,664 376,668 367,663 C358,659 353,653 349,645 C348,641 349,638 352,635 C355,632 358,630 362,632 C368,635 374,633 380,630 C397,620 413,609 428,596 C449,577 468,558 487,536 C488,535 490,534 490,531 C488,529 485,529 482,529 C456,529 430,529 405,529 C402,529 400,530 398,533 C380,561 363,590 350,621 C346,632 341,642 338,653 C334,666 322,668 312,662 C308,660 304,657 301,654 C295,647 294,640 296,632 C300,618 304,603 309,589 C314,574 320,559 326,544 C344,496 364,449 386,403 C400,372 415,342 430,311 C436,299 445,297 458,300 C466,302 472,305 478,309 C484,315 486,320 482,328 C467,355 454,382 441,410 C435,421 430,433 425,444 C424,446 423,447 424,449 C427,449 428,447 430,445 C452,425 475,408 501,394 C513,388 525,383 539,385 C557,387 575,397 581,416 C584,426 582,436 580,446 z"/>
<path d="M263,553 C258,570 254,586 250,602 C247,614 245,626 243,637 C239,661 239,685 239,709 C240,718 240,727 246,734 C248,736 248,738 247,740 C245,744 241,748 236,749 C231,750 226,748 223,744 C218,737 215,729 213,720 C208,696 208,671 210,646 C212,632 214,618 215,604 C217,592 220,579 222,567 C224,550 229,534 232,518 C234,508 237,498 239,488 C242,478 244,467 247,456 C251,441 255,427 260,412 C266,391 273,371 280,350 C282,344 285,338 286,331 C281,330 276,332 272,334 C235,346 198,359 162,373 C148,378 138,374 130,361 C127,356 125,351 124,346 C123,336 127,330 136,328 C148,325 159,320 171,317 C184,313 198,310 211,307 C223,304 235,300 247,297 C256,295 265,293 275,291 C283,289 292,287 301,284 C304,284 305,280 306,277 C322,236 341,197 364,159 C366,155 368,151 370,148 C379,134 386,131 402,136 C408,139 415,142 420,147 C427,152 428,158 423,165 C403,195 387,228 372,260 C371,262 369,265 371,267 C373,269 375,267 377,267 C388,265 398,263 409,261 C418,259 427,257 436,255 C445,254 454,252 464,251 C470,250 476,249 482,248 C487,246 492,246 497,245 C518,242 540,239 561,237 C601,232 641,230 681,232 C700,233 720,233 737,241 C740,242 744,242 744,246 C743,250 739,248 736,248 C722,248 707,248 692,248 C678,249 663,250 649,252 C634,253 620,255 606,256 C594,258 583,260 572,261 C562,263 552,264 542,266 C530,268 518,270 506,272 C497,274 488,276 480,277 C470,279 460,281 451,284 C434,288 416,292 399,297 C384,300 370,304 355,309 C351,310 349,312 347,315 C337,340 328,364 318,389 C309,415 299,442 290,468 C283,489 277,509 270,530 C268,537 265,545 263,553 z"/>
</svg>