<svg xmlns="http://www.w3.org/2000/svg" viewBox="0 0 1024 624" width="200" height="122" role="img" aria-label="Timo Bohnstedt">
  <title>Timo Bohnstedt</title>
<path fill="currentColor" opacity="1.000000" stroke="none" 
	d="
M530.036011,505.968323 
	C539.792786,502.911957 550.133728,499.388580 557.082214,492.570831 
	C563.545715,486.228943 571.301880,482.047455 578.363159,475.900330 
	C574.855164,475.799164 573.306641,479.408508 569.966064,478.637238 
	C570.183167,476.314117 572.137817,475.834045 573.580200,475.013641 
	C586.239624,467.813354 596.863831,457.891388 608.418945,449.210602 
	C619.337524,441.007935 628.591370,430.830719 640.025208,423.276215 
	C647.237122,418.511169 651.617004,419.587830 658.201233,425.021240 
	C665.998047,431.455353 673.604553,438.823700 683.423706,441.941284 
	C692.036316,444.675720 698.123962,443.041382 703.888428,435.200623 
	C709.078857,428.140533 713.767456,420.499969 722.299438,416.652466 
	C724.442200,415.686188 726.256958,415.021698 728.826111,415.219452 
	C732.300354,415.486816 735.595947,414.558655 738.334167,411.227905 
	C744.834473,403.320953 749.824951,394.489685 755.245300,385.910858 
	C761.817383,375.509186 769.028992,365.426422 781.472473,361.898346 
	C788.244507,359.978302 792.158508,356.009949 795.679810,350.542938 
	C799.289795,344.938202 803.609253,339.790771 808.784851,335.528381 
	C815.621765,329.897827 821.160034,330.531708 825.951538,337.899811 
	C828.501709,341.821442 831.141846,344.474762 835.928284,345.804749 
	C842.540161,347.641998 847.146973,352.683075 851.011780,358.316284 
	C855.705017,365.156982 859.624573,372.592285 866.455811,377.790039 
	C872.275635,382.218201 873.007812,382.451263 878.280334,377.798096 
	C889.345093,368.033051 891.691833,369.746887 904.016968,375.780945 
	C914.064148,380.699799 918.165771,390.919495 926.912537,396.531403 
	C928.864990,397.784088 930.680298,399.277222 932.443420,400.793701 
	C942.337708,409.303864 952.561401,407.759827 962.207581,400.927338 
	C972.479858,393.651428 981.183228,384.787109 986.084106,372.726349 
	C989.145874,365.191681 987.583130,358.659576 982.681091,352.717560 
	C977.636414,346.602692 971.413574,341.845886 964.301636,338.350922 
	C943.205994,327.984039 920.673218,322.119873 897.799438,317.393921 
	C873.449402,312.362976 848.749634,310.547211 823.974365,309.097443 
	C800.845154,307.744019 777.656250,308.959625 754.563965,307.075470 
	C741.308289,305.993896 727.951355,305.110809 715.693176,299.086060 
	C708.404175,295.503571 702.083923,290.656036 697.283325,284.065887 
	C695.683044,281.869141 694.338806,281.575623 691.908508,282.755066 
	C685.922424,285.660126 679.760986,288.201324 673.707092,290.969727 
	C657.952698,298.174164 641.415588,288.040649 640.719116,269.148163 
	C640.233704,255.980423 640.813110,242.844254 643.422913,229.866394 
	C643.576477,229.102829 643.442871,228.281540 643.442871,226.828842 
	C638.431824,229.612778 634.797729,233.239944 631.061890,236.681702 
	C613.335205,253.012772 598.219238,271.609253 584.064819,291.037750 
	C580.775024,295.553253 577.916443,300.307770 571.299805,301.094116 
	C563.985535,301.963379 551.455200,294.607635 550.040833,287.461853 
	C549.101868,282.717804 551.514343,278.322754 552.855469,273.959839 
	C558.430054,255.825516 564.383667,237.807755 570.180237,219.741440 
	C570.622131,218.364166 570.923828,216.941895 571.616699,214.295395 
	C559.942322,223.570358 549.648560,232.450394 540.611206,242.714417 
	C523.375671,262.289398 507.921783,283.096558 496.244934,306.550751 
	C493.320953,312.423889 489.821289,317.242462 482.158661,318.349548 
	C471.587799,319.876770 459.278656,308.497131 461.815887,298.317352 
	C465.896271,281.945923 472.404419,266.422607 478.859894,250.894363 
	C482.357422,242.481277 485.971954,234.116837 489.205933,225.476608 
	C482.595886,231.224091 477.051697,237.972855 471.716034,244.781815 
	C454.661499,266.545593 437.743805,288.423859 421.180023,310.562225 
	C411.094757,324.041779 400.781433,324.221771 386.741699,314.438873 
	C378.858124,308.945618 380.142303,300.548828 381.085541,292.556824 
	C381.434784,289.597687 382.126007,286.691589 381.706207,283.614258 
	C379.419891,283.229980 378.921692,285.193695 377.949066,286.311554 
	C372.812958,292.214935 367.826355,298.249268 362.644012,304.110992 
	C360.600800,306.422028 358.169952,308.409088 354.889954,305.910126 
	C351.471832,303.305939 352.587830,300.416992 354.503967,297.586334 
	C365.893402,280.761139 377.375580,263.998291 388.690674,247.123383 
	C395.749969,236.595398 400.695740,224.861633 407.195251,214.006134 
	C409.333099,210.435486 411.630646,206.942200 413.506805,203.237167 
	C416.763855,196.805359 421.973724,194.615356 428.792938,195.691040 
	C431.576050,196.130051 434.370911,196.707153 437.047668,197.570801 
	C447.774567,201.031876 449.912048,205.842621 444.798920,215.718170 
	C435.664978,233.359650 429.234863,252.148880 421.339233,270.313904 
	C421.051666,270.975586 420.366852,271.730865 421.292206,273.000824 
	C430.261688,263.266235 439.158997,253.623245 448.041779,243.966873 
	C473.090302,216.736938 496.587097,188.184799 519.714355,159.333633 
	C525.570923,152.027588 532.377014,150.242004 540.871338,153.013641 
	C545.133972,154.404510 549.497375,155.636353 553.205933,158.272934 
	C558.361267,161.938171 559.504944,165.937714 556.868896,171.714752 
	C552.168701,182.015533 547.282959,192.231567 542.521423,202.504608 
	C542.057495,203.505447 541.197144,204.481033 541.731689,205.864792 
	C543.565430,206.626663 544.310791,204.916702 545.341248,204.077484 
	C553.350098,197.554749 561.362244,191.053452 569.891357,185.192734 
	C579.133118,178.842392 588.363953,178.693726 597.975830,184.236496 
	C604.949707,188.258057 608.093811,194.247391 606.669739,202.192245 
	C605.137817,210.738647 602.148865,218.885803 599.396240,227.092331 
	C598.354553,230.198090 597.497009,233.365585 596.125732,237.937744 
	C604.103027,230.397217 611.029907,223.970337 617.818420,217.400436 
	C625.396057,210.066772 633.723877,203.767014 642.642212,198.142487 
	C651.376282,192.634186 659.409790,195.661423 667.076904,199.991745 
	C674.274231,204.056732 675.410889,211.322845 674.502686,218.765396 
	C672.972534,231.303833 669.410461,243.541321 668.741028,256.219177 
	C668.539246,260.040497 668.440308,263.867889 668.336792,267.693604 
	C668.249451,270.922852 669.804810,272.599701 672.983765,271.535400 
	C677.869141,269.899719 682.636780,267.909393 687.439148,266.030487 
	C689.266113,265.315674 689.713745,263.789368 689.674988,261.974854 
	C689.036438,232.088547 706.679932,212.979980 728.640381,196.676331 
	C736.686523,190.702805 745.862366,186.647110 755.662537,184.055084 
	C764.127869,181.816116 772.287415,182.555038 779.964478,186.372711 
	C793.872009,193.288727 797.240479,207.302811 787.902954,219.767227 
	C781.412048,228.431839 774.090576,236.431061 765.337097,242.956223 
	C752.376038,252.617874 739.356384,262.204132 724.597473,269.044312 
	C721.265442,270.588593 721.398254,272.355621 723.608643,274.716156 
	C728.981140,280.453461 735.919006,283.117065 743.368713,284.654572 
	C760.916687,288.276154 778.737793,288.423676 796.555664,288.928070 
	C831.660400,289.921875 866.798035,290.791412 901.542542,296.635895 
	C925.584290,300.680023 949.178589,306.347687 971.120850,317.466339 
	C978.596924,321.254669 985.461609,325.885529 991.510437,331.742584 
	C1004.770447,344.582092 1008.316101,359.890198 1000.632751,376.417328 
	C990.084229,399.107544 973.078796,415.336456 948.489258,422.560120 
	C946.946716,423.013275 945.330994,423.217285 943.437012,423.600372 
	C945.420654,425.450195 948.763794,423.230255 950.212708,426.566925 
	C944.642151,428.069366 939.454346,427.226074 934.319641,425.211792 
	C924.424011,421.329865 917.133484,413.942352 909.608215,406.876678 
	C904.880737,402.437836 900.099670,398.047119 895.552856,393.427856 
	C892.627014,390.455414 890.077942,390.899384 887.380371,393.478607 
	C886.176514,394.629669 885.066101,395.882538 883.823730,396.988678 
	C879.699646,400.660889 874.731201,402.265533 869.464172,401.001221 
	C863.342468,399.531708 857.429077,397.304626 852.002136,393.845856 
	C845.770752,389.874359 842.628357,383.508606 839.426819,377.462036 
	C837.428894,373.688690 834.599304,370.788391 832.272461,367.409302 
	C831.828552,366.764618 831.020508,366.023987 830.320129,365.956818 
	C824.193970,365.369659 819.290283,362.658234 816.248962,357.562988 
	C812.997620,358.529816 811.924805,360.679443 810.868042,362.721893 
	C805.516968,373.064545 797.714478,380.386383 786.497742,384.299164 
	C776.825562,387.673218 772.136719,396.305023 767.528625,404.635956 
	C761.683411,415.203400 754.901978,424.882538 745.547058,432.787628 
	C741.289368,436.385498 736.719482,437.968475 731.517822,438.254730 
	C729.305725,438.376465 727.616333,439.017609 726.288757,440.613281 
	C721.732422,446.089569 715.892090,450.397034 711.905090,456.382233 
	C702.589844,470.365906 682.211182,468.482635 671.536926,461.335419 
	C664.134583,456.379028 655.517822,453.333832 648.658386,447.373291 
	C647.045044,445.971436 645.559692,447.492493 644.203369,448.423004 
	C637.999817,452.679291 632.642883,457.953003 627.016785,462.891205 
	C623.269958,466.179810 618.676331,468.339996 615.266479,472.055847 
	C614.652222,472.725189 613.606628,473.238892 611.970154,472.138702 
	C613.487183,465.948029 620.290283,464.543945 623.572327,459.879242 
	C580.765137,490.373352 536.528992,517.637878 483.271057,525.504578 
	C496.979980,517.326782 513.216248,515.317627 527.704590,507.282288 
	C528.868347,506.645905 529.452148,506.307098 530.036011,505.968323 
M763.241577,220.727203 
	C766.562073,217.203613 769.771606,213.629105 771.075989,208.760956 
	C772.257385,204.351593 770.947021,202.723557 766.433167,203.560074 
	C762.510742,204.287003 758.736694,205.515137 755.133911,207.347916 
	C741.068115,214.503311 731.584167,226.085800 724.121460,239.527954 
	C722.375977,242.672043 720.358093,246.026108 720.916138,250.118622 
	C728.720276,247.867279 752.956299,231.064926 763.241577,220.727203 
M695.716003,460.171265 
	C694.683533,460.559418 693.360779,459.926941 692.489441,461.070862 
	C702.512512,461.519226 702.512512,461.519226 704.432861,457.443390 
	C701.412842,457.384491 699.109863,459.344421 695.716003,460.171265 
z"/>
<path fill="currentColor" opacity="1.000000" stroke="none" 
	d="
M312.106018,297.990692 
	C297.794128,340.853027 284.456421,383.612579 275.902191,427.637695 
	C271.522583,450.177948 268.696533,473.033783 272.359009,496.081665 
	C273.239288,501.621307 273.794525,507.303162 277.314240,512.103882 
	C279.255554,514.751709 277.884460,517.192566 276.134766,519.365540 
	C273.886719,522.157471 270.919647,522.998779 267.632782,521.720337 
	C263.216766,520.002808 260.271729,516.738037 258.540375,512.301086 
	C253.638199,499.738312 252.157166,486.500854 250.844223,473.246338 
	C247.800385,442.518280 253.163666,412.566681 259.062988,382.612701 
	C271.707520,318.409790 291.164612,256.202667 313.383881,194.781128 
	C314.395264,191.985291 315.200592,189.114914 316.231415,185.871841 
	C312.095642,185.528702 308.690369,186.940338 305.270447,187.854218 
	C281.465576,194.215424 257.912994,201.528824 234.101089,207.785538 
	C221.068817,211.209824 209.191833,218.045792 195.770508,219.769531 
	C192.384506,220.204407 193.261398,223.705368 190.998337,224.489197 
	C186.790482,225.946609 182.917587,228.540192 178.184616,228.253372 
	C176.512421,228.152039 174.966888,228.474030 173.411865,229.332520 
	C156.417755,238.714294 137.752823,244.045364 119.827431,251.158554 
	C110.729347,254.768890 101.597656,258.530151 91.863960,260.329224 
	C81.934097,262.164612 76.087135,259.533264 70.852585,250.941101 
	C68.261986,246.688766 67.198860,241.951508 66.896378,237.149567 
	C66.623146,232.811768 68.662292,229.110565 73.062157,227.904022 
	C87.396988,223.973099 100.900665,217.775726 114.881233,212.882706 
	C143.971725,202.701385 173.465714,193.894104 203.171951,185.725769 
	C242.187515,174.997650 281.724976,166.514954 321.262848,158.038467 
	C325.697357,157.087738 328.027069,154.935226 329.766144,150.862442 
	C341.492615,123.399841 354.679810,96.680145 371.389923,71.840469 
	C377.669373,62.506027 379.611664,61.991829 390.560486,64.605385 
	C394.338928,65.507317 397.811096,67.106598 401.284241,68.624649 
	C407.159424,71.192566 409.453064,78.919479 406.219788,84.730049 
	C395.851532,103.362869 385.352875,121.923950 376.200134,141.201080 
	C375.436951,142.808456 374.038483,144.216141 374.407471,146.504669 
	C378.617371,147.160461 382.518616,145.465286 386.523987,144.753754 
	C401.268616,142.134491 416.043274,139.654968 430.722748,136.705383 
	C450.758148,132.679642 471.002319,129.978165 491.138062,126.597389 
	C526.876892,120.596840 562.849792,116.840195 599.010071,114.896378 
	C613.801636,114.101234 628.671936,113.228180 643.439392,113.888840 
	C665.320984,114.867752 687.327637,115.872810 708.430908,122.883110 
	C710.787476,123.665947 713.076294,124.501991 713.941895,127.753738 
	C694.354614,126.580559 675.158447,127.523804 655.940186,126.795364 
	C641.442078,126.245834 626.821045,128.426392 612.279419,129.679214 
	C596.376160,131.049301 580.466492,132.463852 564.624573,134.392212 
	C550.608093,136.098373 536.698425,138.662003 522.711060,140.629929 
	C469.077454,148.175842 416.379089,160.243423 363.855408,173.196548 
	C361.412292,173.799057 360.133179,174.948059 359.218506,177.096420 
	C348.453888,202.380280 337.554901,227.608078 328.236816,253.479416 
	C322.933441,268.204132 317.564453,282.905182 312.106018,297.990692 
z"/>
<path fill="currentColor" opacity="1.000000" stroke="none" 
	d="
M430.893921,388.676392 
	C430.843781,384.584656 426.621552,385.529663 425.283752,382.675446 
	C422.325317,386.524200 419.815704,390.018066 417.066528,393.311951 
	C412.946625,398.248077 408.113312,402.312469 401.756531,404.055481 
	C391.437408,406.885010 381.655548,399.277557 381.729523,388.570557 
	C381.820129,375.454926 391.944275,360.470673 404.088806,355.477631 
	C412.925232,351.844666 426.054077,359.182892 427.510010,368.561676 
	C427.763611,370.195312 428.062164,371.822021 428.388092,373.734528 
	C433.147858,374.213318 436.807678,373.342285 438.636261,368.241791 
	C440.607361,362.743866 443.530273,357.672913 446.458221,352.620697 
	C448.389862,349.287598 450.741241,347.572723 454.611206,349.636017 
	C458.515991,351.717896 459.653229,354.624176 457.763214,358.757355 
	C456.464722,361.597015 455.445496,364.564362 454.290863,367.501587 
	C461.156677,369.477631 465.979919,367.404785 468.745880,361.734192 
	C470.497040,358.144012 472.388275,354.621185 474.259155,351.090637 
	C476.178253,347.469055 479.300323,346.758453 482.746155,348.280792 
	C486.167694,349.792389 486.940125,352.775665 485.883881,356.257202 
	C485.497162,357.531830 485.165192,358.841003 484.610779,360.043396 
	C483.103516,363.312286 483.044952,365.872833 486.824982,367.837219 
	C489.917755,369.444489 489.966309,372.313477 486.571686,373.164215 
	C475.644989,375.902435 473.161926,385.002380 470.112854,393.782867 
	C468.752106,397.701538 467.522827,401.668060 466.324066,405.640076 
	C465.447327,408.545105 463.962646,411.315521 460.699951,410.899506 
	C457.776154,410.526672 455.974609,408.091461 455.685791,404.861847 
	C455.183502,399.245850 456.704376,393.975922 458.207123,388.678864 
	C458.831726,386.477203 460.090179,384.402374 459.706757,381.357300 
	C455.950287,382.112671 452.271362,382.822144 448.607666,383.603088 
	C446.989899,383.947906 446.064941,385.140137 445.531799,386.617889 
	C443.444855,392.401947 441.133545,398.123383 439.430969,404.019806 
	C438.628204,406.800018 437.844543,409.699310 434.870789,409.702698 
	C431.447235,409.706604 429.323364,407.076447 428.549194,403.640503 
	C427.383484,398.467102 429.719971,393.835297 430.893921,388.676392 
M414.024017,368.408539 
	C412.451202,366.663483 410.710663,367.204926 409.047607,368.155212 
	C401.237823,372.617798 397.525391,379.953278 395.544281,388.258636 
	C394.790283,391.419525 396.851593,392.231323 399.408112,390.670380 
	C407.562134,385.691559 413.510162,379.115387 414.024017,368.408539 
z"/>
<path fill="currentColor" opacity="1.000000" stroke="none" 
	d="
M366.592834,378.979858 
	C366.029480,381.737701 368.350769,380.989166 369.410675,381.382965 
	C379.923615,385.288910 381.724426,392.719971 373.917480,400.869476 
	C362.507446,412.780060 348.598999,420.698395 333.165649,426.152100 
	C331.455750,426.756317 329.648560,427.324097 328.185883,428.339905 
	C325.050720,430.517303 322.420654,429.425964 320.087524,427.278046 
	C317.748352,425.124603 317.737976,423.065063 318.766663,419.524780 
	C320.731232,412.763733 321.785065,405.671417 323.756958,398.822662 
	C327.440247,386.029846 332.339905,373.660980 336.822906,361.152252 
	C338.272827,357.106476 341.345276,353.780914 344.578949,350.879486 
	C346.883545,348.811584 349.846252,347.323578 352.835205,348.733490 
	C356.603882,350.511169 360.195862,349.800293 363.965759,349.320923 
	C373.550232,348.102142 378.815430,351.486053 380.519348,359.480530 
	C381.171021,362.537933 380.382446,365.019440 378.654541,367.426056 
	C375.405579,371.951080 371.034424,375.289520 366.592834,378.979858 
M353.018341,401.528503 
	C356.141693,398.859772 360.389618,397.246765 361.823975,392.622284 
	C345.046448,391.619263 336.642120,397.536041 335.308899,411.205017 
	C341.747559,409.302887 346.843445,405.160522 353.018341,401.528503 
M352.181274,372.805481 
	C357.018982,369.698364 361.879059,366.618164 366.339264,361.786011 
	C361.629944,361.828217 358.264374,363.139282 355.043823,364.782471 
	C352.198883,366.234070 350.935059,369.550110 352.181274,372.805481 
z"/>
<path fill="currentColor" opacity="1.000000" stroke="none" 
	d="
M615.594604,396.404388 
	C612.240051,392.597565 611.558105,388.614929 612.525574,384.027863 
	C614.257812,375.815002 617.099426,368.079254 621.323120,360.830109 
	C622.240967,359.254791 622.864441,357.510468 623.736206,355.905212 
	C624.934998,353.697876 623.541077,351.996735 622.562805,350.377380 
	C621.420349,348.486145 619.648560,349.675232 618.060974,349.943359 
	C613.046997,350.790192 609.948975,353.433350 608.013855,358.339966 
	C603.319641,370.241821 597.203918,381.578339 594.062866,394.101410 
	C593.486206,396.400665 592.175964,398.776459 589.371521,398.459534 
	C586.605469,398.147034 584.361450,396.465088 583.839172,393.452942 
	C583.059570,388.956604 583.377136,384.512238 584.906189,380.170258 
	C587.379150,373.147949 589.807983,366.110107 592.275024,359.022644 
	C589.966309,357.983337 588.075684,358.578430 586.148010,358.975769 
	C581.876343,359.856354 579.291321,357.394958 578.162537,353.872986 
	C577.024963,350.323425 579.548950,348.266693 582.696716,347.296143 
	C598.750183,342.346313 614.823547,337.457397 631.249939,333.857300 
	C632.536011,333.575439 633.900391,333.655273 635.227539,333.556061 
	C638.132935,333.338898 641.200378,333.229462 642.602905,336.349060 
	C643.950134,339.345520 640.177551,339.834534 639.106018,342.219574 
	C642.899048,343.544525 646.182007,341.146027 649.632812,341.066528 
	C653.111633,340.986359 656.731079,338.962585 659.906311,342.485748 
	C662.689819,345.574249 662.753174,347.306519 659.090820,349.441559 
	C654.275024,352.249023 648.893921,353.398438 643.488342,354.434509 
	C640.480286,355.011047 637.575623,355.763092 637.552856,359.670074 
	C639.165955,361.271515 640.807068,360.387268 642.371826,360.114166 
	C644.521851,359.738953 646.697266,359.443878 648.819458,359.984192 
	C653.055298,361.062653 653.630737,364.164337 650.922607,367.516052 
	C647.034668,372.328003 641.199768,372.214935 636.156250,373.970184 
	C628.366028,376.681274 627.780579,377.089874 626.830750,386.500427 
	C632.162292,385.986755 636.943481,384.012268 641.048340,381.229584 
	C645.232422,378.393188 647.713379,380.440369 649.657776,383.291473 
	C651.702515,386.289978 648.648254,388.175232 646.739319,389.767273 
	C642.247742,393.513153 637.244385,396.520538 631.802673,398.722870 
	C626.125977,401.020294 620.743652,400.759460 615.594604,396.404388 
z"/>
<path fill="currentColor" opacity="1.000000" stroke="none" 
	d="
M501.489380,384.497559 
	C499.252411,389.907410 497.224762,395.005890 495.054718,400.043060 
	C493.963470,402.575989 494.036438,406.519012 489.537537,405.603912 
	C485.615265,404.806061 482.714508,400.577667 483.368683,396.593170 
	C483.798401,393.975739 484.355621,391.336212 485.242371,388.844177 
	C489.423737,377.093719 493.806793,365.419983 499.737213,354.401520 
	C501.583099,350.971924 504.071136,347.974884 508.286896,348.982788 
	C512.427979,349.972870 515.827881,352.290619 516.369995,357.308716 
	C516.825134,361.521820 517.744385,365.684814 518.551941,370.420044 
	C522.761963,362.681427 526.321228,355.177826 530.926758,348.268829 
	C532.134766,346.456696 533.419617,344.809601 535.303955,343.578430 
	C537.320679,342.260834 539.001709,341.730682 541.127930,343.476685 
	C543.128662,345.119690 544.305725,346.885742 543.546936,349.474731 
	C543.175720,350.741272 542.628479,351.974518 542.021423,353.150848 
	C535.077332,366.605530 528.524292,380.246552 522.983643,394.341400 
	C521.621399,397.806885 519.884338,400.351990 515.879822,399.840424 
	C511.946747,399.338043 509.004150,397.036377 507.929932,393.201752 
	C506.610809,388.493073 505.790131,383.644745 504.559448,377.957733 
	C503.316254,380.599030 502.478058,382.379913 501.489380,384.497559 
z"/>
<path fill="currentColor" opacity="1.000000" stroke="none" 
	d="
M681.103882,387.214630 
	C674.971313,390.939362 668.313660,392.843597 662.720276,396.869873 
	C660.679199,398.339111 657.987427,398.936005 655.715332,397.050690 
	C653.376831,395.110291 652.314392,392.576752 653.313843,389.484955 
	C657.920715,375.233032 662.743042,361.057007 669.606384,347.694183 
	C673.024841,341.038452 674.023010,340.584961 681.378113,341.791229 
	C686.306335,342.599548 691.163940,343.757141 695.628235,346.162384 
	C706.231140,351.875122 708.391724,362.085999 700.915710,371.627075 
	C697.492493,375.995789 693.186096,379.416382 688.580750,382.462128 
	C686.219666,384.023590 683.814026,385.517639 681.103882,387.214630 
M673.779846,372.693726 
	C674.046143,376.202728 676.182312,374.673187 677.563293,373.880951 
	C682.061401,371.300598 686.156433,368.114227 689.213257,363.898193 
	C690.753235,361.774261 693.194153,359.173981 689.477173,356.717926 
	C685.512329,354.098053 681.091370,354.920746 679.452026,358.658875 
	C677.518982,363.066650 675.812256,367.573639 673.779846,372.693726 
z"/>
<path fill="currentColor" opacity="1.000000" stroke="none" 
	d="
M570.055054,361.543610 
	C575.338867,365.283386 576.533081,368.738403 573.357239,373.522522 
	C566.635742,383.648010 558.601685,392.787415 550.511169,401.829163 
	C547.935852,404.707245 544.380066,406.122589 540.739807,403.230286 
	C537.606689,400.741028 537.279175,395.924042 539.770264,392.028625 
	C544.345398,384.874512 550.304626,378.825897 555.789551,372.349426 
	C555.359070,372.112732 555.088928,371.828491 554.866089,371.861725 
	C550.233398,372.552917 545.613281,372.773315 543.059204,367.870880 
	C540.381897,362.731781 543.522400,358.914001 546.795349,355.478790 
	C551.159241,350.898621 555.726440,346.487640 561.479187,343.620911 
	C563.402161,342.662689 565.422180,341.788849 567.496155,341.268158 
	C571.234192,340.329681 575.331848,342.629028 576.306396,345.940186 
	C577.347656,349.477966 575.242859,353.210388 570.980347,354.063629 
	C567.071716,354.846008 564.638428,357.109406 562.005249,360.179443 
	C564.886658,360.636993 567.284912,361.017822 570.055054,361.543610 
z"/>
<path fill="currentColor" opacity="1.000000" stroke="none" 
	d="
M704.849426,351.834747 
	C704.960205,346.721558 708.062317,344.736115 712.091858,343.840942 
	C723.291138,341.353088 734.433289,338.591003 745.809387,336.943817 
	C752.672180,335.950134 757.600220,337.136627 757.911072,340.703461 
	C758.485413,347.292542 752.321960,347.682190 748.566956,348.023376 
	C738.134094,348.971313 733.539673,355.055939 730.489197,364.137146 
	C727.424805,373.260040 722.515686,381.708099 719.980103,391.085022 
	C719.368286,393.347809 718.175232,395.920807 715.359619,395.524994 
	C712.071899,395.062836 709.566833,393.022308 708.925598,389.456909 
	C708.221497,385.541443 709.364441,381.838623 710.607788,378.221161 
	C713.034119,371.161804 715.616028,364.155975 718.268372,356.751617 
	C713.315674,355.983704 707.196716,359.250580 704.849426,351.834747 
z"/>
<path fill="currentColor" opacity="1.000000" stroke="none" 
	d="
M452.052612,160.636169 
	C454.488983,161.811264 456.719269,162.668228 458.550415,164.053009 
	C464.630066,168.650681 464.956665,174.869019 459.593292,180.262054 
	C450.157837,189.749664 444.257233,190.555283 433.603668,183.810532 
	C427.338440,179.844040 425.903198,173.131058 430.870789,167.719833 
	C438.831421,159.048279 440.143555,156.371490 452.052612,160.636169 
z"/>
<path fill="currentColor" opacity="1.000000" stroke="none" 
	d="
M530.288452,505.753540 
	C529.452148,506.307098 528.868347,506.645905 527.965942,507.106812 
	C526.558960,507.017090 525.299561,507.550140 524.093872,506.152954 
	C528.190796,503.001984 532.891357,501.682953 538.028748,501.193787 
	C535.532837,502.642120 533.036865,504.090424 530.288452,505.753540 
z"/>
</svg>